<?xml version="1.0" encoding="UTF-8"?>
<!-- Created with Inkscape (http://www.inkscape.org/) -->
<svg width="418" height="184" version="1.1" viewBox="0 0 418 184" xmlns="http://www.w3.org/2000/svg">
 <g>
  <g fill="#fff">
   <path d="m167 111.15c0-4.2346 15.426-22.5 40.771-48.274 17.531-17.828 19.088-19.69 17.013-20.339-1.2563-0.39283-15.334-0.94607-31.284-1.2294-15.95-0.28336-29.425-0.91551-29.943-1.4048-1.1327-1.068 3.0645-5.6751 8.7767-9.6339l3.9953-2.7689 30.086-0.34329c21.899-0.24988 35.085 0.09489 48.459 1.267 10.105 0.88567 18.793 1.8696 19.305 2.1865 1.9958 1.2334-8e-3 3.3857-8.406 9.0269-10.206 6.856-23.927 19.174-35.488 31.859-8.106 8.8941-16.285 19.217-16.285 20.554 0 3.37 65.987 2.2837 98.137-1.6155 34.378-4.1695 57.542-12.197 60.933-21.118 1.8991-4.995-2.6221-11.444-11.85-16.904-5.0178-2.9686-24.357-9.4546-35.546-11.922-7.6907-1.6957-10.117-3.4469-7.8789-5.6855 2.1494-2.1494 41.403 6.5385 57.325 12.687 11.681 4.5111 14.355 5.9816 19.495 10.719 4.6133 3.2324 4.6327 6.6807 4.3856 10.45-0.38001 5.7993-1.1618 9.7744-8.7872 15.059-17.248 11.954-59.868 21.751-114.21 26.254-7.425 0.6153-18.191 1.5474-23.924 2.0714-5.733 0.52396-27.221 0.95265-47.75 0.95265h-37.326zm67-1.1206c5.775-0.53684 17.7-1.4527 26.5-2.0354 8.8-0.5826 23.875-1.9646 33.5-3.071 66.7-7.6677 102.98-20.573 103-36.64 7e-3 -5.7828-9.1392-12.668-24.244-18.251-7.0489-2.6054-22.969-7.1493-23.431-6.6875-0.20327 0.20328 2.3089 1.3462 5.5826 2.5399 11.82 4.3097 20.807 12.465 21.761 19.747 2.0917 15.966-32.448 27.007-95.239 30.444-21.879 1.1975-70.735 0.94969-72.049-0.36544-3.6354-3.6383 31.717-42.74 51.012-56.423 7.6168-5.4012 8.457-6.2788 6.4358-6.7222-9.5114-2.0867-67.083-3.2282-83.518-1.656-7.1051 0.67968-8.6513 1.1858-11.641 3.8104l-3.4472 3.0266 28.141 0.61428c29.706 0.64846 35.65 1.1487 35.626 2.9984-8e-3 0.62733-8.3859 9.6736-18.617 20.103-18.436 18.793-33.796 35.956-40.18 44.899l-3.3121 4.6392 26.812 3e-3c14.747 2e-3 31.537-0.43648 37.312-0.97332zm-106.59-0.57215c-17.766-1.9405-41.801-6.0212-59.413-10.087-18.375-4.2423-22-5.5831-22-8.1383 0-1.0287 4.1602-6.3031 9.245-11.721 12.186-12.984 44.447-42.408 48.255-44.013 3.4975-1.4732 25.984-3.9351 27.483-3.0089 2.1343 1.319 0.83195 3.3508-4.3555 6.7951-8.5834 5.6991-23.108 18.154-37.041 31.763l-12.914 12.614 8.414 1.6371c16.574 3.2249 57.133 6.7017 78.178 6.7017 7.7373 0 9.9182 0.31195 10.368 1.483 0.34955 0.9109-2.0105 4.5757-6.1177 9.5l-6.6868 8.017-10.664-0.11128c-5.865-0.0612-16.103-0.70535-22.75-1.4314zm37.361-8.0395 5.2746-6.4177-10.775-0.009889c-20.775-0.019067-59.738-3.4905-76.284-6.7966-10.189-2.0358-10.791-3.1534-5.3126-9.8599 5.1088-6.254 27.627-26.916 38.822-35.622l9-6.999-7.9027 0.69938c-12.485 1.105-12.901 1.295-23.797 10.878-13.108 11.529-43.801 41.882-43.801 43.316 0 1.9913 34.498 9.6431 60 13.308 19.809 2.847 29.897 3.8111 40.5 3.8707l9 0.0506 5.2746-6.4177zm-133.27-13.786c-4.2821-2.0166-8.456-4.9159-10.75-7.467-3.3563-3.7325-5.3448-5.0035-5.3448-9.8406 0 0 1.0698-4.1051 2.1587-5.8904 0.97539-1.5994 3.8061-4.135 3.8061-4.135 5.9775-5.3743 16.261-9.83 29.778-14.146 11.723-3.7428 31.727-8.348 32.957-7.5876 1.7749 1.0969 0.83725 3.2125-1.8559 4.1873-21.533 7.7942-29.855 11.825-41.862 22.051-1.5612 1.3297-2.995 2.9907-3.6968 4.9176-0.45276 1.2432-0.21389 3.9634-0.21389 3.9634 0.29741 2.9188 2.5324 7.4283 3.9529 9.9699 1.4131 2.5283 2.5693 5.2152 2.5693 5.9709 0 2.228-4.0115 1.5323-11.5-1.9944zm4.5397-5.7326c-1.1602-2.5572-2.005-6.5823-2.0178-9.6141-0.01871-4.4424 0.44559-5.7477 3.1332-8.8087 3.8001-4.3281 9.9375-8.6713 19.345-13.689 3.85-2.0537 6.6883-3.7459 6.3073-3.7603-2.0212-0.07677-22.39 7.2388-27.903 10.022-8.7184 4.4005-12.94 7.7942-14.581 11.721-1.2103 2.8967-1.1753 3.7406 0.28301 6.8137 1.6922 3.566 7.7624 8.407 13.645 10.882 1.787 0.75177 3.3696 1.2469 3.5169 1.1003s-0.63034-2.2461-1.728-4.6655zm128.96 7.2009-4.5-0.59981 0.21526-5c0.11839-2.75 0.47007-6.8 0.7815-9 0.53037-3.7466 0.20817-3.414-5.0856 5.25l-5.6519 9.25h-3.74c-8.0238 0-13.019-1.1774-13.019-3.0685 0-0.98817 4.9033-10.49 10.896-21.114l10.896-19.317 13.459-0.27728c15.608-0.32155 16.174-0.06279 14.657 6.6924-0.53742 2.3919-0.80995 4.5161-0.60562 4.7204 0.20434 0.20433 2.4812-2.3452 5.0597-5.6656l4.6882-6.0371 10.725 0.28358c12.864 0.34014 13.249 0.94719 5.6752 8.9487-6.2997 6.6553-24 27.063-27.829 32.085-2.6242 3.4421-3.2391 3.7377-7.4902 3.5998-2.5472-0.082606-6.6563-0.42011-9.1313-0.75zm21.86-14.357c5.6982-6.7336 13.513-15.505 17.366-19.493l7.006-7.25-16.733 0.04313-3.7657 5.2284c-11.009 15.286-13.871 16.262-11.258 3.8397 0.83787-3.9831 1.5234-7.6626 1.5234-8.1766 0-0.52486-4.9995-0.93462-11.403-0.93462h-11.403l-7.7426 13.75c-4.2584 7.5625-8.9903 15.835-10.515 18.382l-2.7725 4.6324 3.6684 0.60659c7.4673 1.2348 7.4737 1.2306 13.875-9.1214 3.3159-5.3625 6.5543-10.762 7.1964-12 1.5242-2.9376 4.114-2.9376 4.0416 0-0.0305 1.2375-0.61333 6.525-1.2952 11.75l-1.2398 9.5 3.5452 0.6081c9.2182 1.5812 8.6993 1.8774 19.906-11.365zm43.836 14.62c-0.38318-0.38318-0.6967-1.3448-0.6967-2.137 0-3.1924 26.98-39.075 30.997-41.225 1.0768-0.57627 5.0114-0.72183 9.4257-0.34868 6.3043 0.53291 7.5774 0.93439 7.5774 2.3896 0 0.96202-2.7978 6.1835-6.2173 11.603s-8.7298 14.354-11.801 19.854l-5.5833 10-11.503 0.28003c-6.3265 0.15402-11.816-0.03348-12.199-0.41667zm31.883-20.593c6.0064-10.026 11.051-18.517 11.21-18.869s-2.0907-0.89892-5-1.2165l-5.2896-0.57747-4.7207 4.9843c-5.5279 5.8366-11.138 13.034-19.611 25.159l-6.1148 8.75h18.605zm0.63501 19.346c-0.50926-1.3271 17.036-37.019 20.141-40.971 0.83776-1.0665 3.3095-1.2124 11.605-0.68507 15.214 0.96718 14.136 0.14066 13.51 10.358l-0.53157 8.6824 3.709-8.7114c2.04-4.7912 4.3303-8.9497 5.0895-9.2411 1.2076-0.46342 4.4105 0.02369 13.013 1.9791 1.2375 0.28129 2.25 1.2559 2.25 2.1658 0 0.90988-3.5776 8.9871-7.9502 17.949-6.2838 12.88-8.4322 16.407-10.25 16.827-1.2649 0.29254-6.5748 0.64424-11.8 0.78156l-9.5 0.24967 0.25672-10.5 0.25673-10.5-4.5703 10c-2.5137 5.5-5.1042 10.516-5.7567 11.146-0.65252 0.6302-5.1681 1.3393-10.035 1.5759-7.3048 0.35506-8.951 0.16218-9.4375-1.1057zm21.653-11.951c2.5974-5.3158 5.4987-11.609 6.4473-13.985 1.238-3.1006 2.213-4.2244 3.455-3.9824 1.4865 0.28959 1.6916 1.3912 1.4555 7.8195-0.15111 4.1153-0.54072 10.138-0.8658 13.384l-0.59106 5.9018 4.7554-0.6518c2.6154-0.35849 6.7149-0.6518 9.1099-0.6518h4.3545l15.902-31.757-5.0912-0.67537c-2.8002-0.37145-5.4345-0.31365-5.8541 0.12846-0.41957 0.44211-2.5842 5.0788-4.8103 10.304-2.9671 6.9643-4.5262 9.5-5.841 9.5-1.6021 0-1.8034-1.0949-1.8864-10.26-0.0511-5.6428-0.27608-10.419-0.5-10.614-0.22392-0.195-4.5317-0.65401-9.5729-1.02l-9.1658-0.66548-5.0842 9.5296c-2.7963 5.2413-7.3055 13.692-10.02 18.78l-4.9361 9.25 14.017-0.66979zm37.523 8.4099c-0.57827-1.5069 13.995-34.077 15.727-35.147 0.5822-0.35982 8.6428 0.80683 14.633 2.1179 1.2673 0.27737 2.2571 1.2485 2.2662 2.2234 9e-3 0.95202-2.9832 8.3684-6.649 16.481l-6.6653 14.75h-6.2259c-3.4243 0-7.6253 0.27986-9.3356 0.62192-2.3664 0.47329-3.2626 0.22309-3.75-1.0469zm22.149-13.825c2.6909-6.1875 5.4664-12.375 6.1678-13.75l1.2752-2.5-3.7411-0.69237c-8.3089-1.5378-8.5869-1.3992-11.923 5.9424-1.6869 3.7125-4.6872 10.238-6.6674 14.5l-3.6003 7.75h13.596z"/>
   <path d="m342.33 51.193c-4.4446 0.04401-6.2036 4.8716-7.7852 8.2227-3.2734 7.1536-6.8135 14.217-9.6699 21.543-0.19843 3.0136 3.5735 2.7584 5.6172 2.7812 3.4086-0.17914 6.9743 0.50456 10.262-0.41797 3.341-6.2981 5.801-13.111 8.873-19.578 1.0686-3.0787 3.3865-5.9049 3.5703-9.2441-0.72633-2.8045-4.4225-2.1051-6.5801-2.8027-1.4235-0.19623-2.8467-0.48373-4.2871-0.50391z"/>
   <path d="m285.81 47.248-0.36523 0.08789-0.1875 0.04687c-3.5843 5.4825-6.2884 11.59-9.5312 17.314-3.5508 6.841-7.4144 13.548-10.596 20.564-0.47519 2.8176 2.9141 3.1963 4.9219 2.9043 3.6426-0.49332 7.887 0.66061 11.074-1.6074 3.0654-3.2564 4.1701-7.8418 6.3418-11.68 2.3586-4.7939 4.3887-9.7434 6.7969-14.512 0.26341 8.2132-0.51796 16.421-1.2305 24.633 0.58571 3.2016 4.2529 1.6032 6.4199 1.5527 4.7631-0.71659 9.6352-0.48849 14.32-1.2793 2.0952-1.5637 2.5706-4.6927 4.0156-6.8711 4.008-8.3826 8.66-16.495 12.08-25.139 0.74387-2.6785-2.475-3.2939-4.418-3.3008-2.869 0.02218-6.377-1.1268-8.7891 0.90234-3.2858 4.8172-4.9014 10.584-7.7031 15.691-0.36144 0.52126-1.0365 2.2063-1.3789 2.0918-0.54922-6.1154-0.14467-12.328-1.0234-18.4-1.4552-2.2602-4.7143-1.4773-6.9961-2.0391-4.5771-0.25825-9.2092-1.0675-13.752-0.96094z"/>
   <path d="m264.39 46.383c-0.61517 7.49e-4 -1.2262 0.05949-1.8281 0.21094-11.37 11.253-20.744 24.346-29.539 37.656-1.7292 1.9418 0.28856 4.6606 2.6445 4.291 5.4356 0.13197 10.929 0.21646 16.332-0.01953 2.4444-1.0721 3.0112-4.3378 4.6406-6.3359 6.1896-10.483 12.614-20.834 18.605-31.43 0.93053-3.168-3.1356-3.3235-5.2891-3.7148-1.8329-0.13648-3.7209-0.66045-5.5664-0.6582z"/>
   <path d="m208.94 46.188c-0.26728 0.01583-0.52259 0.05369-0.75782 0.11523-4.7381 0.17178-9.592-0.3386-14.26 0.24805-2.3988 1.7266-3.725 4.8119-5.707 7.0625-2.4202 3.108-4.9618 6.9296-7.7344 9.3086 0.11732-4.7213 2.1758-9.2564 2.002-13.965-0.95942-3.2308-5.0468-2.274-7.5879-2.5703-5.6563-0.04786-11.368-0.2273-16.99 0.04102l-0.89258 0.31055c-5.9259 9.9432-11.524 20.14-17.258 30.219-1.1187 2.5295-3.2321 4.788-3.584 7.5684 0.80078 3.0558 4.7462 2.4426 7.1562 3.0312 3.4397 0.82224 6.9551-0.93688 8.6523-3.9785 4.3485-6.0259 7.7771-12.641 11.951-18.773-0.29234 6.8979-1.7202 13.801-2.1406 20.746 0.89894 2.722 4.4044 1.9843 6.6367 2.6895 3.7534 0.74968 8.1095 0.54156 10.852-2.4941 8.101-8.2152 15.103-17.447 23.057-25.809 3.1638-3.6379 6.9052-6.845 9.7656-10.697 1.0842-2.1524-1.2892-3.1635-3.1602-3.0527z"/>
   <path d="m123.07 34.314c-0.16875-0.0026-0.34637 0.01083-0.53125 0.04102-0.39789-0.0148-0.79538-0.0097-1.1934-0.0039-7.1624 0.55555-15.096 0.50712-21.014 5.2031-11.979 9.564-22.793 20.491-33.799 31.137-5.9524 6.1038-12.351 11.863-17.602 18.596-1.4565 2.5815 1.8016 4.101 3.8047 4.6074 14.927 4.4999 30.32 7.2615 45.654 9.9746 19.667 3.1964 39.495 6.1546 59.477 5.8047 3.5214 0.65796 4.7642-3.4106 6.875-5.377 2.1256-2.9788 5.1288-5.459 6.6309-8.793-0.61143-3.178-4.5539-1.7284-6.8359-2.1445-25.899-0.61153-51.793-2.2785-77.414-6.2793-3.6183-0.80228-7.604-1.0484-10.859-2.8633 1.0177-3.5113 4.1708-5.9638 6.502-8.6582 12.863-13.073 26.803-25.03 41.088-36.51 2.422-1.1637 1.7481-4.6953-0.7832-4.7344z"/>
   <path d="m206.69 28.504c-9.9904 0.24018-20.131-0.40258-29.99 1.5215-3.4475 0.92101-6.9713 3.0793-8.5293 6.375-0.59898 2.7855 2.857 3.2811 4.8555 3.1914 18.086 0.78912 36.21 0.38715 54.242 1.9199 3.0975-0.27737 1.2062 1.3923-0.0117 2.6641-18.698 20.412-39.104 39.407-55.785 61.602-1.1806 1.6832-3.5845 4.4399-1.1875 6.1816 3.6054 1.2463 7.6203 0.43599 11.379 0.72266 22.354 0.0541 44.75 0.20034 67.025-1.9824 36.528-2.7253 73.289-5.8907 108.85-15.1 6.0842-1.6687 12.202-3.4655 18.006-5.8809 0.44481-0.38127 0.70411-0.84306 0.87305-1.3438 1.7852 0.85309 4.1878-0.95587 5.8652-1.6621 6.7299-3.5135 14.249-8.1507 16.221-16.014 1.328-5.0943-2.5028-9.523-6.2305-12.424-6.3183-4.8573-13.787-8.0392-21.236-10.736-3.1926-0.94376-6.346-2.3293-9.6602-2.7305-0.0805 0.0071-0.14868 0.02854-0.22461 0.04102-0.28574-0.49461-0.76432-0.88069-1.3379-1.0059-2.9576-0.84466-5.9323-1.642-8.9336-2.3164-0.39737-0.07696-0.79771-0.16838-1.2051-0.15625-1.2941-0.01194-2.3367 1.3501-1.9883 2.5957 0.25536 1.2014 1.5028 1.6983 2.5059 2.1426 2.6118 1.1239 5.297 2.0658 7.9062 3.1953 0.49415 0.22418 1.0477 0.21708 1.5391 0.03711 0.35254 0.6027 0.86963 1.1028 1.5312 1.3555 5.5274 3.5425 11.724 7.7161 13.51 14.424 0.78369 2.5901-0.81093 5.1198-0.78516 7.6426-1.3148 0.33182-2.6574 1.7611-3.6582 2.5137-9.0891 6.8565-20.423 9.6346-31.246 12.137-21.557 4.4497-43.846 6.3379-65.898 7.1055-20.626 0.53303-41.388 0.8204-61.936-0.35547 3.533-7.2501 9.2246-13.182 14.402-19.332 11.919-13.163 24.542-25.987 38.916-36.355 1.7992-1.6025 5.3794-3.495 4.0938-6.4023-1.8552-2.3367-5.3575-1.5551-7.9707-2.1191-17.929-1.3557-35.939-1.411-53.91-1.4512z"/>
   <path d="m145.14 45.381c-0.19119 1.77e-4 -0.38903 0.0024-0.59375 0.0059-2.1837 0.03692-5.1445 0.25734-9.0469 0.57422-15.362 1.2474-13.933 0.39497-34.254 20.412-15.711 15.476-17.052 17.901-10.5 18.984 8.2646 1.3661 11.71 0.81601 14.75-2.3574 1.5808-1.65 3.9154-3 5.1875-3 2.5925 0 2.7395 0.33513 1.3164 2.9941-1.8326 3.4243-0.22262 4.8845 5.834 5.291 8.8655 0.59501 11.4 0.32964 12.258-1.2852 0.43815-0.825 3.9173-7.8 7.7324-15.5 3.8151-7.7 8.2262-16.34 9.8027-19.201 2.9299-5.3164 3.4406-6.9234-2.4863-6.918zm-20.219 12.564c-2.1264 9.8346-5.0488 13.953-5.0488 13.953s-6.6846 1.075-7.4434-1.3281c-0.85882-2.7199 12.492-12.625 12.492-12.625z"/>
  </g>
  <g fill="none" stroke="#fff" stroke-width="2">
   <g stroke-linecap="round" stroke-linejoin="round">
    <path d="m74.823 144.86v-11.031h19.005s1.9731 1.3417 1.946 3.3705c-0.01968 1.474-2.2397 2.4792-1.6802 2.4771h-18.872l18.894 0.34409s1.3796 1.8385 1.4801 3.2421c0.09892 1.3818-1.762 2.9132-1.762 2.9132h-18.513s-0.52584 0.0456-0.49786-1.3163z"/>
    <path d="m103.2 139.15s1.329-5.8476 10.566-5.4489c8.7333 0.37702 9.5024 5.5818 9.5024 5.5818s1.2141 7.0631-10.433 6.9108c-10.167-0.13289-9.6353-7.0437-9.6353-7.0437z"/>
    <path d="m241.73 139.15s1.329-5.8476 10.566-5.4489c8.7333 0.37702 9.5024 5.5818 9.5024 5.5818s1.2141 7.0631-10.433 6.9108c-10.167-0.13289-9.6353-7.0437-9.6353-7.0437z"/>
   </g>
   <path d="m130.81 145.29v-11.371h15.976s4.2289 1.3156 4.3228 5.9204c0.094 4.6048-4.0409 6.2963-4.0409 6.2963h-15.694s-0.84577 0-0.56385-0.84578z"/>
   <g stroke-linecap="round">
    <path d="m158.25 133.73 10.243 6.2963 9.9613-6.4843"/>
    <path d="m168.4 139.74v6.8602"/>
    <g stroke-linejoin="round">
     <path d="m214.1 133.43v12.758l9.9675-6.3792 10.265 5.9263v-12.571"/>
     <path d="m270.05 145.66v-12.227h17.809"/>
     <path d="m270.39 139.68h17.742s1.8606-0.3987 2.2593-2.9238-2.9903-3.3225-2.9903-3.3225"/>
     <path d="m280.95 139.94 8.6452 6.0584"/>
     <path d="m297.7 133.3v12.366"/>
     <path d="m316.78 133.96-16.347 4.7844s-1.7277 0.5316-1.8606 1.4619 18.34 5.7147 18.34 5.7147"/>
     <path d="m345.94 134.23h-18.606s-1.6439 1.7206-1.5948 2.7909c0.0495 1.0804 1.1961 2.2593 1.8606 2.658 0.6645 0.3987 14.962 0 15.948 0s1.9024 2.2416 1.8606 3.5883c-0.0321 1.0328-1.5948 2.658-1.5948 2.658h-18.606"/>
    </g>
   </g>
  </g>
  <path d="m62.725 45.665c-3.4919 0.90576-9.0716 2.4795-12.494 3.6232-8.7184 3.1416-17.44 6.4768-24.966 12.036-2.9591 2.2181-5.7521 5.5855-6.1614 9.3999 0.04599 2.113 0.97714 4.3217 2.2035 5.9816 3.6333 4.2383 9.1159 7.2216 14.318 9.2 0.6535 0.18091 1.7822 1.1649 2.433 1.1213-0.66292-2.632-2.5052-5.6202-3.1494-8.2722-0.94829-3.3674-1.107-6.9412-0.68216-10.402 0.85615-3.3259 3.5789-5.7041 5.9716-7.9837 6.1331-5.4512 15.136-9.1828 22.189-13.25 0.23964-0.04058 0.86986-1.4505 0.33693-1.4539z" fill="#fff" stroke="#fff" stroke-linecap="round" stroke-linejoin="round" stroke-width=".2658"/>
 </g>
</svg>
